<?xml version="1.0" encoding="UTF-8"?>
<svg width="569px" height="71px" viewBox="0 0 569 71" version="1.1" xmlns="http://www.w3.org/2000/svg" xmlns:xlink="http://www.w3.org/1999/xlink">
    <title>Logo</title>
    <g id="Page-1" stroke="none" stroke-width="1" fill="none" fill-rule="evenodd">
        <g id="Logo" transform="translate(5.256560, 0.000000)">
            <path d="M0,60.360012 L23.4326538,18.7410399 C23.484145,18.6495615 23.5385372,18.5599206 23.5958255,18.4721116 C23.6531154,18.3843027 23.7131672,18.2985217 23.7759844,18.2147678 C23.8387999,18.1310338 23.9042565,18.0494982 23.9723477,17.9701598 C24.0404174,17.8908214 24.1109711,17.813861 24.184007,17.7392797 C24.2570645,17.6647204 24.3324355,17.5926988 24.41012,17.5232165 C24.4878078,17.4537121 24.5676518,17.3869177 24.6496539,17.322832 C24.7316377,17.2587243 24.8156107,17.197467 24.9015761,17.1390564 C24.9875217,17.0806237 25.0752496,17.0251464 25.1647581,16.9726232 C25.2542931,16.9201233 25.3454184,16.8706933 25.4381407,16.8243359 C25.5308431,16.7779785 25.6249538,16.7347998 25.7204712,16.6947998 C25.8159653,16.6547998 25.912651,16.618053 26.0105265,16.5845593 C26.1083806,16.5510876 26.2072126,16.5209436 26.3070276,16.4941272 C26.406841,16.4673328 26.5074157,16.4439197 26.6087482,16.4238879 C26.7100642,16.403877 26.8119213,16.38729 26.9143229,16.3741272 C27.0167212,16.3609863 27.1194323,16.3513123 27.2224594,16.3451038 C27.3254617,16.3388953 27.4285733,16.3361658 27.5317857,16.336792 C27.6349784,16.3376587 27.738032,16.3418823 27.8409532,16.3495837 C27.9438744,16.3572852 28.0464415,16.3684424 28.1486511,16.3830554 C28.2508426,16.3976697 28.3524614,16.4157166 28.4535044,16.4371997 C28.554549,16.4586829 28.6547777,16.4835571 28.7541972,16.5118237 C28.8536366,16.5400696 28.9520533,16.5716321 29.049444,16.6065125 C29.1468627,16.6414136 29.2430371,16.6795471 29.3379686,16.7209119 C29.4329018,16.7622986 29.5264051,16.806842 29.618482,16.8545446 C29.7105374,16.9022241 29.8009676,16.952965 29.8897695,17.0067675 C29.9785482,17.06057 30.065505,17.1172961 30.150638,17.1769446 C30.2357892,17.2366125 30.3189083,17.2990881 30.3999936,17.3643676 C30.481102,17.4296472 30.560016,17.4975841 30.636744,17.568175 C30.7134703,17.6387682 30.7878318,17.7118762 30.8598219,17.7875035 C30.9318368,17.863131 31.0013363,17.9410924 31.0683254,18.0213916 C31.1352896,18.1017125 31.1996061,18.1841979 31.261278,18.2688474 C31.3228623,18.3534984 31.3817045,18.4401329 31.4378078,18.528751 C31.4939078,18.6173704 31.5470887,18.7077915 31.5973487,18.8000157 L51.3049883,54.9747325 C51.3558755,55.06796 51.4096752,55.1593729 51.4664041,55.2489707 C51.5233415,55.3387874 51.5829929,55.426468 51.645345,55.5120121 C51.7079123,55.5975598 51.7731836,55.6808658 51.8411722,55.7619319 C51.9091641,55.8430007 51.9797575,55.921723 52.0529623,55.9980932 C52.1259519,56.0744642 52.2014519,56.1481723 52.2794492,56.2192113 C52.3574514,56.2904659 52.4376397,56.3588384 52.5200124,56.4243339 C52.6023951,56.4900408 52.6868579,56.5528619 52.7734075,56.6128083 C52.8597453,56.6727548 52.9480656,56.7296107 53.0383735,56.7833719 C53.1284711,56.8373444 53.2203362,56.8881164 53.3139785,56.9356922 C53.4074074,56.9832637 53.5023025,57.0275308 53.5986523,57.068494 C53.6952139,57.1096632 53.7929239,57.1474237 53.8917741,57.1817688 C53.9906277,57.2163297 54.0905238,57.2473678 54.1914592,57.274889 C54.2924062,57.3026258 54.3940714,57.3267311 54.496473,57.3472143 C54.5988745,57.3679078 54.7018967,57.3850813 54.8055444,57.3987329 C54.9091988,57.4123845 55.0131626,57.4224086 55.1174375,57.4288095 C55.2215055,57.4354262 55.3257854,57.438411 55.4302671,57.4377705 C55.5347539,57.4371299 55.639133,57.4329715 55.7434079,57.4252921 C55.847481,57.41761 55.9512329,57.4063062 56.0546787,57.3913722 C56.1581212,57.3766526 56.2609382,57.3583086 56.3631263,57.33633 C56.4655263,57.3145719 56.5669896,57.2892956 56.6675112,57.2604912 C56.7680329,57.2316912 56.8675103,57.1994794 56.9659502,57.1638496 C57.0645985,57.1284347 57.1618899,57.0896106 57.2578193,57.0473704 C57.3537553,57.0051301 57.4482301,56.9596893 57.5412436,56.9110524 C57.6340486,56.8621999 57.7252931,56.8103581 57.8149704,56.7555272 C57.9046477,56.7007051 57.9923442,56.642786 58.0780614,56.5817707 C58.1639805,56.5209715 58.2477135,56.4572919 58.3292588,56.3907288 C58.4110143,56.3239557 58.4904711,56.2546249 58.567636,56.1827323 C58.644594,56.110628 58.7192517,56.0359589 58.7916224,55.9587334 C58.8637813,55.8817165 58.9334396,55.8022528 59.0005925,55.7203344 C59.0677504,55.638416 59.1320851,55.5542568 59.1936065,55.4678524 C59.2551328,55.381666 59.3138393,55.2933488 59.3697341,55.2028943 C59.4254154,55.1126555 59.4781842,55.0205972 59.5280239,54.9267322 L78.5399237,19.0733605 C78.5895632,18.9794297 78.6423204,18.8873119 78.6982185,18.7970079 C78.7541167,18.7067039 78.8128148,18.6184043 78.8743462,18.5321117 C78.9358659,18.4458189 79.0002022,18.3617125 79.0673568,18.2797912 C79.1343061,18.197893 79.2039595,18.1183727 79.2763252,18.0412315 C79.3484858,17.9640905 79.4231534,17.8894983 79.5003117,17.817456 C79.5774815,17.7454138 79.6568291,17.6760803 79.7383694,17.6094555 C79.8201299,17.5428307 79.9038629,17.479066 79.9895851,17.4181603 C80.0755075,17.3572741 80.1633098,17.2993761 80.2529822,17.244464 C80.342446,17.189552 80.4336921,17.1377649 80.5267073,17.089104 C80.6197225,17.0404211 80.7141989,16.9949707 80.8101317,16.9527527 C80.9060677,16.9105334 81.0032548,16.871632 81.1016913,16.8360486 C81.2001278,16.8004846 81.2997129,16.7683142 81.4004397,16.7395361 C81.5009564,16.710758 81.6023171,16.6854346 81.7045052,16.6635681 C81.8067049,16.6417224 81.9095202,16.6233874 82.0129628,16.6085596 C82.1164019,16.5937329 82.2202615,16.5824585 82.3245397,16.5747351 C82.4286127,16.5669922 82.5328827,16.5628113 82.637371,16.5621912 C82.7418511,16.5615942 82.8462253,16.5645496 82.9505052,16.5710559 C83.0547851,16.5775842 83.1587538,16.5876526 83.2623982,16.6012634 C83.3658441,16.6148962 83.4688662,16.6320373 83.571478,16.652688 C83.6738763,16.6733386 83.7755564,16.697467 83.8764868,16.725072 C83.9774238,16.752677 84.077315,16.7836963 84.1761669,16.8181286 C84.2750337,16.8525378 84.3726262,16.890299 84.4689859,16.9314075 C84.5655524,16.9724963 84.6605402,17.0168371 84.7539691,17.0644323 C84.8474096,17.1120056 84.9392763,17.1627258 85.0295825,17.2165918 C85.1196735,17.2704369 85.2079938,17.3273107 85.2945434,17.3872155 C85.381093,17.4470983 85.4655575,17.5098717 85.5479369,17.5755359 C85.6303079,17.6411998 85.7104995,17.7096057 85.7885051,17.7807519 C85.8662888,17.8518762 85.9417856,17.9255944 86.0149953,18.001903 C86.0879866,18.0781921 86.158484,18.1569006 86.226466,18.2380308 C86.2944479,18.3191417 86.3597242,18.4024792 86.4222865,18.4880478 C86.4848571,18.5736168 86.5446144,18.6612314 86.6015419,18.7508958 C86.6582707,18.8405381 86.7120788,18.9320274 86.762966,19.0253599 L106.290404,54.8691322 C106.341506,54.9630008 106.39562,55.0550511 106.452779,55.1452899 C106.509905,55.2353174 106.569977,55.3233216 106.632961,55.4092927 C106.695937,55.4952657 106.761644,55.5790001 106.830045,55.6604906 C106.89844,55.741985 106.969462,55.8210243 107.043087,55.8976102 C107.116696,55.9741965 107.192721,56.0482238 107.271133,56.1196888 C107.349552,56.1909426 107.43026,56.259529 107.51326,56.3254512 C107.59626,56.3911589 107.681359,56.4540897 107.768532,56.5142492 C107.855495,56.5741956 107.944436,56.6310516 108.03537,56.6848127 C108.126305,56.7387874 108.218797,56.7895572 108.312851,56.8371331 C108.407113,56.8847046 108.502731,56.9289712 108.599723,56.9699335 C108.696905,57.0108949 108.795235,57.0484401 108.89472,57.0825691 C108.994194,57.1167069 109.09471,57.1474237 109.196286,57.1747339 C109.297855,57.2020371 109.400249,57.2258229 109.503479,57.2460912 C109.606511,57.2663595 109.710161,57.2831015 109.814446,57.2963305 C109.918719,57.3095572 110.023307,57.3191609 110.128209,57.3251331 C110.232896,57.3311044 110.337798,57.3334552 110.442915,57.3321698 C110.547817,57.3308905 110.652603,57.3260902 110.7573,57.3177698 C110.861994,57.3092398 110.966267,57.2971845 111.070127,57.2816135 C111.174201,57.2660412 111.277548,57.2468396 111.38014,57.2240091 C111.482752,57.2013988 111.584526,57.1752666 111.685473,57.1456126 C111.786408,57.1159585 111.8862,57.0828927 111.984848,57.0464133 C112.0837,57.0097195 112.181197,56.9698279 112.277337,56.9267304 C112.373491,56.8834235 112.468065,56.8369173 112.56108,56.7872129 C112.6541,56.7375068 112.745449,56.6846014 112.835117,56.6284938 C112.924797,56.5725997 113.012495,56.5136108 113.098201,56.4515315 C113.18393,56.3894504 113.267555,56.3245971 113.349095,56.2569704 C113.430432,56.1891333 113.509568,56.1186257 113.586529,56.0454503 C113.66328,55.9722793 113.737634,55.8965448 113.809579,55.8182526 C113.881533,55.7399582 113.950772,55.6592104 114.017298,55.5760113 C114.083832,55.4930249 114.147641,55.4078004 114.208757,55.320335 C114.269656,55.2328671 114.327636,55.1433705 114.382685,55.0518506 C114.437949,54.9605447 114.490094,54.8673167 114.539105,54.7721711 L133.017316,18.9434069 C133.065494,18.8497972 133.116696,18.7579136 133.170914,18.6677598 C133.225146,18.577606 133.282282,18.4893809 133.342347,18.4030871 C133.4022,18.3167943 133.464875,18.2326231 133.530347,18.1505761 C133.595631,18.0685277 133.663522,17.988773 133.734011,17.9113121 C133.804707,17.833872 133.877704,17.7588952 133.952984,17.6863829 C134.028479,17.613872 134.106168,17.543983 134.186045,17.4767199 C134.265919,17.4094567 134.347885,17.3449767 134.431931,17.28328 C134.51597,17.2215624 134.601907,17.1627575 134.689714,17.1068639 C134.777715,17.0509704 134.867386,16.9981164 134.958735,16.9483044 C135.04988,16.8984692 135.142685,16.851781 135.237161,16.8082397 C135.331423,16.7646984 135.427048,16.7243884 135.524016,16.687312 C135.620783,16.6502356 135.718794,16.6164746 135.818078,16.5860315 C135.917147,16.5555896 136.017134,16.5285388 136.118074,16.5048791 C136.218804,16.4812 136.320273,16.4609546 136.422471,16.4441443 C136.52466,16.4273547 136.627267,16.414032 136.730291,16.404176 C136.833315,16.3942981 136.936552,16.3879309 137.039991,16.385072 C137.143437,16.3821924 137.246883,16.382821 137.350317,16.3869592 C137.453758,16.3910779 137.55689,16.3986926 137.659707,16.4098084 C137.762523,16.4209009 137.864922,16.4354724 137.9669,16.4535193 C138.068894,16.4715674 138.170245,16.4930396 138.270974,16.5179358 C138.371498,16.542832 138.47108,16.5710986 138.569729,16.6027356 C138.66858,16.6343738 138.766175,16.6693176 138.862531,16.7075671 C138.959101,16.745819 139.054307,16.787279 139.14815,16.8319519 C139.242009,16.8766443 139.334284,16.9244531 139.425004,16.9753759 C139.515724,17.0263196 139.604673,17.0802612 139.691852,17.1371996 C139.779014,17.1941589 139.864322,17.2540002 139.947739,17.3167199 C140.031156,17.3794396 140.112395,17.444912 140.19144,17.5131359 C140.270476,17.5813598 140.347328,17.6521862 140.421996,17.7256164 C140.496449,17.7990453 140.568502,17.8749059 140.638155,17.9531993 C140.707825,18.0314927 140.774864,18.1120578 140.839304,18.1948961 C140.903745,18.2777331 140.965372,18.3626609 141.024193,18.4496788 C141.083207,18.5366978 141.139299,18.6256052 141.192486,18.7164 L165.48683,60.2000118" id="New-shape" stroke="#FFFFFF" stroke-width="12"></path>
            <text id="kryptokrona" font-family="Montserrat-SemiBold, Montserrat" font-size="58" font-weight="500" fill="#FFFFFF">
                <tspan x="192.74344" y="56">kryptokrona</tspan>
            </text>
        </g>
    </g>
</svg>