<?xml version="1.0" encoding="UTF-8"?>
<svg width="2588px" height="1080px" viewBox="0 0 2588 1080" version="1.1" xmlns="http://www.w3.org/2000/svg" xmlns:xlink="http://www.w3.org/1999/xlink">
    <title>Combined Shape</title>
    <defs>
        <linearGradient x1="100%" y1="41.2884148%" x2="3.83915989e-14%" y2="58.7115852%" id="linearGradient-1">
            <stop stop-color="#2F2F2F" offset="0%"></stop>
            <stop stop-color="#262626" offset="100%"></stop>
        </linearGradient>
        <path d="M2638,-21 L2638,1101 L-50,1101 L-50,-21 L2638,-21 Z M1224.10526,352 L1176.84211,352 L1176.84211,730 L1224.10526,730 L1224.10526,541 L1271.36842,541 L1271.36842,493.75 L1224.10526,493.75 L1224.10526,352 Z M1696.73684,352 L1507.68421,352 L1507.68421,730 L1554.94737,730 L1554.94737,588.25 L1649.47368,588.25 L1649.47368,635.5 L1696.736,635.5 L1696.73684,730 L1744,730 L1744,635.5 L1696.73684,635.5 L1696.73684,541.003307 L1554.94737,541 L1554.94737,399.25 L1696.73684,399.25 L1696.73684,352 Z M893.263158,588.25 L846,588.25 L846,730 L893.263158,730 L893.263158,588.25 Z M1082.31579,588.25 L1035.05263,588.25 L1035.05263,730 L1082.31579,730 L1082.31579,588.25 Z M1413.15789,635.5 L1365.89474,635.5 L1365.89474,730 L1413.15789,730 L1413.15789,635.5 Z M1365.89474,588.25 L1318.63158,588.25 L1318.63158,635.5 L1365.89474,635.5 L1365.89474,588.25 Z M940.526316,541 L893.263158,541 L893.263158,588.25 L940.526316,588.25 L940.526316,541 Z M1035.05263,541 L987.789474,541 L987.789474,588.25 L1035.05263,588.25 L1035.05263,541 Z M1318.63158,541 L1271.36842,541 L1271.36842,588.25 L1318.63158,588.25 L1318.63158,541 Z M987.789474,493.75 L940.526316,493.75 L940.526316,541 L987.789474,541 L987.789474,493.75 Z M1744,399.25 L1696.73684,399.25 L1696.736,541 L1744,541 L1744,399.25 Z M940.526316,446.5 L893.263158,446.5 L893.263158,493.75 L940.526316,493.75 L940.526316,446.5 Z M1035.05263,446.5 L987.789474,446.5 L987.789474,493.75 L1035.05263,493.75 L1035.05263,446.5 Z M1318.63158,446.5 L1271.36842,446.5 L1271.36842,493.75 L1318.63158,493.75 L1318.63158,446.5 Z M893.263158,352 L846,352 L846,446.5 L893.263158,446.5 L893.263158,352 Z M1082.31579,352 L1035.05263,352 L1035.05263,446.5 L1082.31579,446.5 L1082.31579,352 Z M1365.89474,399.25 L1318.63158,399.25 L1318.63158,446.5 L1365.89474,446.5 L1365.89474,399.25 Z M1413.15789,352 L1365.89474,352 L1365.89474,399.25 L1413.15789,399.25 L1413.15789,352 Z" id="path-2"></path>
        <filter x="-0.6%" y="-0.9%" width="101.0%" height="102.4%" filterUnits="objectBoundingBox" id="filter-3">
            <feOffset dx="-3" dy="3" in="SourceAlpha" result="shadowOffsetOuter1"></feOffset>
            <feGaussianBlur stdDeviation="4" in="shadowOffsetOuter1" result="shadowBlurOuter1"></feGaussianBlur>
            <feComposite in="shadowBlurOuter1" in2="SourceAlpha" operator="out" result="shadowBlurOuter1"></feComposite>
            <feColorMatrix values="0 0 0 0 0   0 0 0 0 0   0 0 0 0 0  0 0 0 0.550535402 0" type="matrix" in="shadowBlurOuter1"></feColorMatrix>
        </filter>
        <filter x="-0.6%" y="-0.8%" width="100.9%" height="102.1%" filterUnits="objectBoundingBox" id="filter-4">
            <feGaussianBlur stdDeviation="3" in="SourceAlpha" result="shadowBlurInner1"></feGaussianBlur>
            <feOffset dx="2" dy="-2" in="shadowBlurInner1" result="shadowOffsetInner1"></feOffset>
            <feComposite in="shadowOffsetInner1" in2="SourceAlpha" operator="arithmetic" k2="-1" k3="1" result="shadowInnerInner1"></feComposite>
            <feColorMatrix values="0 0 0 0 0.818331069   0 0 0 0 0.818331069   0 0 0 0 0.818331069  0 0 0 0.323563156 0" type="matrix" in="shadowInnerInner1"></feColorMatrix>
        </filter>
    </defs>
    <g id="Page-1" stroke="none" stroke-width="1" fill="none" fill-rule="evenodd">
        <g id="Combined-Shape">
            <use fill="black" fill-opacity="1" filter="url(#filter-3)" xlink:href="#path-2"></use>
            <use fill="url(#linearGradient-1)" fill-rule="evenodd" xlink:href="#path-2"></use>
            <use fill="black" fill-opacity="1" filter="url(#filter-4)" xlink:href="#path-2"></use>
            <path stroke="#8E8E8E" stroke-width="0.5" d="M2637.75,-20.75 L2637.75,1100.75 L-49.75,1100.75 L-49.75,-20.75 L2637.75,-20.75 Z M1224.35526,351.75 L1176.59211,351.75 L1176.59211,730.25 L1224.35526,730.25 L1224.35526,541.25 L1271.118,541.25 L1271.11842,588.5 L1318.381,588.5 L1318.38158,635.75 L1365.644,635.749 L1365.64474,730.25 L1413.40789,730.25 L1413.40789,635.25 L1366.144,635.249 L1366.14474,588 L1318.881,588 L1318.88158,540.75 L1271.618,540.75 L1271.618,494 L1318.88158,494 L1318.881,446.749 L1366.14474,446.75 L1366.144,399.5 L1413.40789,399.5 L1413.40789,351.75 L1365.64474,351.75 L1365.644,399 L1318.38158,399 L1318.381,446.25 L1271.11842,446.25 L1271.118,493.5 L1224.35526,493.5 L1224.35526,351.75 Z M1696.98684,351.75 L1507.43421,351.75 L1507.43421,730.25 L1555.19737,730.25 L1555.19737,588.5 L1649.22368,588.5 L1649.22368,635.75 L1696.486,635.75 L1696.48684,730.25 L1744.25,730.25 L1744.25,635.25 L1696.98684,635.25 L1696.986,541.25 L1744.25,541.25 L1744.25,399 L1696.986,399 L1696.98684,351.75 Z M893.513158,351.75 L845.75,351.75 L845.75,446.75 L893.013,446.75 L893.013158,494 L940.276,494 L940.276,540.75 L893.013158,540.75 L893.013,588 L845.75,588 L845.75,730.25 L893.513158,730.25 L893.513,588.5 L940.776316,588.5 L940.776,541.249 L987.539,541.25 L987.539474,588.5 L1034.802,588.5 L1034.80263,730.25 L1082.56579,730.25 L1082.56579,588 L1035.302,588 L1035.30263,540.75 L988.039,540.75 L988.039,494 L1035.30263,494 L1035.302,446.75 L1082.56579,446.75 L1082.56579,351.75 L1034.80263,351.75 L1034.802,446.25 L987.539474,446.25 L987.539,493.5 L940.776,493.5 L940.776316,446.25 L893.513,446.25 L893.513158,351.75 Z M1696.486,399.5 L1696.485,540.753 L1555.19737,540.750006 L1555.19737,399.5 L1696.486,399.5 Z" stroke-linejoin="square"></path>
        </g>
    </g>
</svg>