<?xml version="1.0" encoding="UTF-8"?>
<svg width="2588px" height="1080px" viewBox="0 0 2588 1080" version="1.1" xmlns="http://www.w3.org/2000/svg" xmlns:xlink="http://www.w3.org/1999/xlink">
    <title>Artboard</title>
    <g id="Artboard" stroke="none" stroke-width="1" fill="none" fill-rule="evenodd">
        <path d="M893.263158,446.5 L893.263158,352 L846,352 L846,446.5 L893.263158,446.5 Z M1035.05263,446.5 L1082.31579,446.5 L1082.31579,352 L1035.05263,352 L1035.05263,446.5 Z M893.263158,588.25 L846,588.25 L846,730 L893.263158,730 L893.263158,588.25 Z M940.526316,541 L893.263158,541 L893.263158,588.25 L940.526316,588.25 L940.526316,541 Z M1035.05263,588.25 L1035.05263,730 L1082.31579,730 L1082.31579,588.25 L1035.05263,588.25 Z M893.263158,446.5 L893.263158,493.75 L940.526316,493.75 L940.526316,446.5 L893.263158,446.5 Z M1035.05263,446.5 L987.789474,446.5 L987.789474,493.75 L1035.05263,493.75 L1035.05263,446.5 Z M987.789474,541 L987.789474,493.75 L940.526316,493.75 L940.526316,541 L987.789474,541 Z M1035.05263,588.25 L1035.05263,541 L987.789474,541 L987.789474,588.25 L1035.05263,588.25 Z M1365.89474,635.5 L1365.89474,730 L1413.15789,730 L1413.15789,635.5 L1365.89474,635.5 Z M1365.89474,399.25 L1413.15789,399.25 L1413.15789,352 L1365.89474,352 L1365.89474,399.25 Z M1271.36842,541 L1271.36842,493.75 L1224.10526,493.75 L1224.10526,352 L1176.84211,352 L1176.84211,730 L1224.10526,730 L1224.10526,541 L1271.36842,541 Z M1318.63158,588.25 L1318.63158,541 L1271.36842,541 L1271.36842,588.25 L1318.63158,588.25 Z M1365.89474,635.5 L1365.89474,588.25 L1318.63158,588.25 L1318.63158,635.5 L1365.89474,635.5 Z M1318.63158,446.5 L1271.36842,446.5 L1271.36842,493.75 L1318.63158,493.75 L1318.63158,446.5 Z M1365.89474,399.25 L1318.63158,399.25 L1318.63158,446.5 L1365.89474,446.5 L1365.89474,399.25 Z M1696.73684,541.003307 L1554.94737,541 L1554.94737,399.25 L1696.73684,399.25 L1696.73684,541.003307 Z M1696.73684,635.5 L1696.73684,730 L1744,730 L1744,635.5 L1696.73684,635.5 Z M1696.73684,635.5 L1696.73684,541 L1744,541 L1744,399.25 L1696.73684,399.25 L1696.73684,352 L1507.68421,352 L1507.68421,730 L1554.94737,730 L1554.94737,588.25 L1649.47368,588.25 L1649.47368,635.5 L1696.73684,635.5 Z" id="XKR" fill="#FFFFFF" fill-rule="nonzero"></path>
    </g>
</svg>