<svg xmlns="http://www.w3.org/2000/svg" width="320" height="133" xmlns:v="https://vecta.io/nano"><style><![CDATA[.B{fill:#ece8ee}.C{stroke:#ece8ee}.D{opacity:.027}.E{fill:#f4838c}.F{stroke:#f4838c}.G{opacity:.098}.H{fill:#f8f9fd}.I{stroke:#f8f9fd}.J{opacity:.224}.K{fill:#eeba78}.L{stroke:#eeba78}.M{opacity:.278}.N{fill:#8fd3a1}.O{stroke:#8fd3a1}.P{opacity:.078}.Q{fill:#fff}.R{stroke:#fff}.S{opacity:.659}.T{fill:#edd370}.U{stroke:#edd370}.V{opacity:.961}.W{fill:#a595d7}.X{stroke:#a595d7}.Y{opacity:.239}.Z{opacity:.49}.a{fill:#b881ed}.b{stroke:#b881ed}.c{opacity:.851}.d{fill:#ed666c}.e{stroke:#ed666c}.f{opacity:.929}.g{opacity:.996}.h{fill:#e8c97e}.i{stroke:#e8c97e}.j{fill:#f4a87d}.k{stroke:#f4a87d}.l{opacity:.788}.m{fill:#f5bd7e}.n{stroke:#f5bd7e}.o{opacity:.478}.p{fill:#bf80e7}.q{stroke:#bf80e7}.r{opacity:.376}.s{opacity:.741}.t{fill:#7df59a}.u{stroke:#7df59a}.v{opacity:.333}.w{fill:#ae84f3}.x{stroke:#ae84f3}.y{fill:#83f695}.z{stroke:#83f695}.AA{opacity:.455}.AB{fill:#f29460}.AC{stroke:#f29460}.AD{fill:#83f5a7}.AE{stroke:#83f5a7}.AF{opacity:.753}.AG{fill:#ac89ef}.AH{stroke:#ac89ef}.AI{opacity:.51}.AJ{stroke:#000}.AK{opacity:0}.AL{fill:#7df5d5}.AM{stroke:#7df5d5}.AN{opacity:.596}.AO{fill:#a669eb}.AP{stroke:#a669eb}.AQ{fill:#75f29c}.AR{stroke:#75f29c}]]></style><path d="M.5 0h42L61 3.5l-14 9 .5 1.5 2.5-1.5-.5 3.5 2-1h2L70 6.5l1-4L69.5 0 278 .5l-3 6 8.5 1.5 1.5-.5-3 8 3.5 1.5 11.5-2.5-.5-1.5-9.5-.5 3-8-2.5-.5-6.5-.5 1.5-3.5 30.5.5-7 5 3.5 2.5 10-4 .5 54.5-1.5.5h-2l-1.5.5 1 8-1.5-.5-8-3-2 3 1.5.5 1 11-.5 1.5 2.5-.5 1.5-9.5 9.5 3.5-.5 31.5-18-10-2.5 1.5 3.5 5.5 10.5 7.5-14 8 2.5 4.5 10.5 6.5q-5.4 7.6-21.5 4.5h-47l-.5-4.5 1.5-.5 7 4 1-10 8 4 .5-2.5-11.5-6.5-2 9-7-3-1.5 5.5 1 3-1.5-.5-8-3-1 5-54.5-.5-1.5-3.5-8 3-.5-1.5 1-6-2.5-1.5-6 3-1-9-12.5 5.5.5 2.5 8-3 1 9 8-3 .5 4.5-61.5.5-5-3-13 3-3-9-3-1-11 9-5-17L42 128.5l-1 3 2 1-42.5.5-.5-16.5 1.5-.5 5 2 1-9 8 3 .5-2.5L3.5 104l-1 9-2.5-1.5L.5 74l2.5-.5-3-15 11-2-7-14 15-3-7-14 15-2 1-2-1.5-2.5h-2l-17 1-3 1-1.5.5 7 14L.5 37V0z" class="AJ AK"/><path d="M57.5 0l6.5.5.5 3.5 2-4L71 3.5 67.5 8l-14 6-3.5-1.5 1.5-2.5L62 3.5 57.5 0z" class="g AB AC"/><path d="M64.5 0l1.5.5L64.5 4V0zm4 0v1-1z" class="f d e"/><path d="M278.5 0l2.5.5-1 3 10 1-3 8 9 2-12.5 2.5-1.5-2.5 3-7-1.5-.5-7 1-.5-3.5 2.5-4.5z" class="g AQ AR"/><path d="M281.5 0v1-1z" class="AD AE AF"/><path d="M313.5 0l6.5.5-.5 3.5-8 3-2.5-3.5 4.5-3.5z" class="Q R Z"/><path d="M58.5 1v1-1z" class="K L M"/><path d="M69.5 1v1-1z" class="j k l"/><path d="M277.5 1v1-1zm34 0v1-1z" class="J H I"/><path d="M70.5 2v1-1z" class="d e f"/><path d="M309.5 2v1-1z" class="B C D"/><path d="M61.5 3v1-1z" class="d e f"/><path d="M280.5 3v1-1z" class="t u v"/><path d="M288.5 3v1-1z" class="B C D"/><path d="M308.5 3l2.5 3.5-4-1 1.5-2.5z" class="H I J"/><path d="M60.5 4v1-1z" class="j k l"/><path d="M70.5 4v1-1z" class="E F G"/><path d="M307.5 4v3-3z" class="B C D"/><path d="M58.5 5v1-1z" class="E F G"/><path d="M314.5 5l1.5.5-1.5.5V5z" class="H I J"/><path d="M69.5 6v1-1z" class="E F G"/><path d="M275.5 6v1-1z" class="B C D"/><path d="M312.5 6v1-1z" class="H I J"/><path d="M313.5 6v1-1z" class="B C D"/><path d="M55.5 7v1-1z" class="K L M"/><path d="M135.5 7v1-1z" class="m n o"/><path d="M136.5 7v1-1z" class="S h i"/><path d="M283.5 7v1-1z" class="B C D"/><path d="M132.5 8v1-1z" class="j k l"/><path d="M133.5 8l3.5 2.5.5 6.5 7-3 1.5 3.5-2 6 1.5-.5 8-2 .5 7.5-2.5 3.5-1-7-6 1-2.5-1.5-.5-6.5-5 2-1-2-2 1-.5-2.5 1-4-2.5-.5-5 1 2-3 5-2z" class="g AB AC"/><path d="M135.5 8l2.5 1.5-1.5.5-1.5-.5-.5 1.5-.5-1.5 1.5-1.5z" class="T U V"/><path d="M284.5 8v1-1z" class="N O P"/><path d="M288.5 8v1-1z" class="AL AM AN"/><path d="M52.5 9v1-1z" class="d e f"/><path d="M129.5 9v1-1z" class="K L M"/><path d="M50.5 10v1-1z" class="m n o"/><path d="M127.5 10v1-1z" class="K L M"/><path d="M137.5 10l.5 1.5h-1l.5-1.5z" class="E F G"/><path d="M48.5 11v1-1z" class="K L M"/><path d="M49.5 11v1-1z" class="j k l"/><path d="M50.5 11v1-1z" class="S h i"/><path d="M60.5 11v1-1zm65 0v1-1z" class="G E F"/><path d="M126.5 11l-1 2 1-2z" class="T U V"/><path d="M283.5 11v1-1z" class="AD AE AF"/><path d="M47.5 12l1.5.5-2 1 .5-1.5z" class="E F G"/><path d="M57.5 12v1-1z" class="S h i"/><path d="M124.5 12v1-1z" class="B C D"/><path d="M131.5 12v1-1z" class="E F G"/><path d="M49.5 13v1-1z" class="K L M"/><path d="M50.5 13l2.5.5-2.5-.5zm4 0v1-1z" class="f d e"/><path d="M55.5 13v1-1z" class="K L M"/><path d="M56.5 13v1-1zm68 0v1-1z" class="G E F"/><path d="M125.5 13l1.5.5-1.5.5v-1z" class="m n o"/><path d="M127.5 13v1-1z" class="S h i"/><path d="M282.5 13v1-1z" class="N O P"/><path d="M295.5 13v1-1z" class="t u v"/><path d="M296.5 13v1-1z" class="N O P"/><path d="M48.5 14v1-1z" class="S h i"/><path d="M49.5 14v1-1z" class="E F G"/><path d="M50.5 14v1-1z" class="j k l"/><path d="M52.5 14l2.5.5-2.5 1.5v-2z" class="E F G"/><path d="M133.5 14v1-1z" class="K L M"/><path d="M142.5 14v1-1z" class="T U V"/><path d="M296.5 14v1-1z" class="H I J"/><path d="M49.5 15v1-1z" class="K L M"/><path d="M133.5 15v1-1z" class="T U V"/><path d="M139.5 15v1-1z" class="B C D"/><path d="M282.5 15v1-1zm12 0v1-1z" class="AN AL AM"/><path d="M137.5 16v1-1z" class="E F G"/><path d="M142.5 16v1-1z" class="T U V"/><path d="M233.5 16v1-1z" class="B C D"/><path d="M234.5 16v1-1z" class="N O P"/><path d="M289.5 16v1-1z" class="AL AM AN"/><path d="M290.5 16v1-1z" class="B C D"/><path d="M136.5 17l-.5 1.5-.5 2.5-2.5-1.5 3.5-2.5z" class="T U V"/><path fill="#9b9b9b" stroke="#9b9b9b" opacity=".498" d="M232.5 17l11.5 5.5-3.5.5-5-2-2 9-6-2-2 9-7-3-1 8-2.5-1.5-1-9 3.5-1.5 6 2 .5-2.5-1-5 2.5-1.5 6 3 1-9z"/><path d="M284.5 17v1-1z" class="B C D"/><path d="M141.5 18v1-1z" class="K L M"/><path d="M145.5 18v1-1z" class="j k l"/><path d="M238.5 18v1-1z" class="N O P"/><path d="M6.5 19l3 1 8-1 6.5 1.5-.5 3.5h-2L11 25.5l6 11-.5 1.5 1.5.5-14 4 7 13L.5 58 0 52.5l4-1-2-1-2-13L9.5 36l2 1-.5-1.5-8-13L6.5 19z" class="g AO AP"/><path d="M8.5 19v1-1z" class="W X Y"/><path d="M9.5 19v1-1z" class="a b c"/><path d="M18.5 19v1-1z" class="p q r"/><path d="M19.5 19v1-1z" class="a b c"/><path d="M20.5 19v1-1z" class="p q r"/><path d="M21.5 19v1-1z" class="a b c"/><path d="M22.5 19v1-1z" class="p q r"/><path d="M23.5 19v1-1z" class="W X Y"/><path d="M24.5 19v1-1zm2 0l1.5 2.5-2.5 1.5.5-1.5.5-2.5z" class="D B C"/><path d="M138.5 19v1-1z" class="m n o"/><path d="M240.5 19v1-1z" class="N O P"/><path d="M24.5 20l.5 1.5h-1l.5-1.5z" class="a b c"/><path d="M25.5 20v1-1z" class="W X Y"/><path d="M133.5 20l1.5.5-1.5.5v-1zm19 0v1-1z" class="S h i"/><path d="M153.5 20v1-1z" class="T U V"/><path d="M241.5 20l1 2-1-2z" class="W X Y"/><path d="M242.5 20l2.5 3.5h-1l-1.5-3.5z" class="N O P"/><path d="M3.5 21v1-1z" class="E F G"/><path d="M25.5 21v3l-1.5-.5 1.5-2.5z" class="S w x"/><path d="M149.5 21v1-1z" class="T U V"/><path d="M154.5 21v1-1z" class="B C D"/><path d="M26.5 22v1-1z" class="p q r"/><path d="M144.5 22v1-1z" class="T U V"/><path d="M146.5 22v1-1z" class="E F G"/><path d="M154.5 22l.5 1.5h-1l.5-1.5z" class="T U V"/><path d="M239.5 22v1-1z" class="t u v"/><path d="M22.5 23v1-1z" class="a b c"/><path d="M26.5 23v1-1z" class="W X Y"/><path d="M144.5 23v1-1z" class="S h i"/><path d="M235.5 23v1-1zm6 0v1-1z" class="D B C"/><path d="M242.5 23l1.5.5-1.5.5v-1z" class="W X Y"/><path d="M18.5 24v1-1z" class="B C D"/><path d="M141.5 24l.5 1.5h-1l.5-1.5z" class="m n o"/><path d="M154.5 24v1-1z" class="E F G"/><path d="M11.5 25v1-1z" class="B C D"/><path d="M142.5 25l1.5.5-.5 1.5-1-2zm5 0v1-1z" class="V T U"/><path d="M148.5 25v1-1zm82 0v1-1z" class="D B C"/><path d="M141.5 26v1-1z" class="K L M"/><path d="M142.5 26v1-1z" class="S h i"/><path d="M144.5 26v1-1z" class="j k l"/><path d="M232.5 26v1-1z" class="W X Y"/><path d="M235.5 26v1-1z" class="B C D"/><path d="M5.5 27v1-1z" class="S w x"/><path d="M12.5 27v1-1z" class="a b c"/><path d="M235.5 27l.5 1.5h-1l.5-1.5z" class="N O P"/><path d="M150.5 28v1-1z" class="B C D"/><path d="M150.5 29v1-1z" class="S h i"/><path d="M153.5 29v1-1z" class="m n o"/><path d="M215.5 29l1.5.5-1.5.5v-1z" class="N O P"/><path d="M223.5 29v1-1z" class="t u v"/><path d="M231.5 29v1-1z" class="W X Y"/><path d="M234.5 29v1-1z" class="p q r"/><path d="M235.5 29v1-1z" class="W X Y"/><path d="M150.5 30l1.5 3.5h-1l-.5-3.5z" class="T U V"/><path d="M153.5 30v1-1z" class="E F G"/><path d="M214.5 30v1-1z" class="p q r"/><path d="M218.5 30v1-1z" class="W X Y"/><path d="M219.5 30v1-1z" class="N O P"/><path d="M223.5 30v1-1z" class="B C D"/><path d="M234.5 30v1-1z" class="N O P"/><path d="M152.5 31l.5 1.5h-1l.5-1.5z" class="j k l"/><path d="M150.5 32l.5 1.5h-1l.5-1.5z" class="K L M"/><path d="M9.5 33v1-1z" class="a b c"/><path d="M152.5 33v1-1z" class="B C D"/><path d="M10.5 34v1-1z" class="p q r"/><path d="M16.5 34v1-1z" class="B C D"/><path d="M214.5 34v1-1z" class="W X Y"/><path d="M10.5 35v1-1zm204 0v1-1z" class="P N O"/><path d="M4.5 36v1-1z" class="B C D"/><path d="M5.5 36v1-1z" class="p q r"/><path d="M6.5 36l1.5.5-1.5.5v-1z" class="AG AH AI"/><path d="M8.5 36v1-1z" class="a b c"/><path d="M10.5 36v1-1z" class="W X Y"/><path d="M11.5 36v1-1zm6 0v1-1z" class="r p q"/><path d="M224.5 36v1-1z" class="N O P"/><path d="M226.5 36v1-1z" class="t u v"/><path d="M14.5 37v1-1z" class="a b c"/><path d="M16.5 37v1-1z" class="S w x"/><path d="M17.5 37v1-1z" class="W X Y"/><path d="M18.5 38v1-1zm-3 1l1 2-2.5-.5 1.5-1.5z" class="S w x"/><path d="M16.5 39l-1 2 1-2z" class="a b c"/><path d="M17.5 39l1.5.5-2 1 .5-1.5z" class="W X Y"/><path d="M11.5 41v1-1z" class="E F G"/><path d="M215.5 41l1 2-1-2z" class="N O P"/><path d="M217.5 42v1-1z" class="W X Y"/><path d="M5.5 45v1-1z" class="p q r"/><path d="M.5 48L3 51.5.5 52v-4z" class="AJ AK"/><path d="M7.5 48v1-1z" class="B C D"/><path d="M1.5 49v1-1z" class="W X Y"/><path d="M80.5 50L91 55.5 88.5 57l-5-3-2 9-7-2-.5 4.5 1 2-1.5 2.5-7-3-2 7-1.5-.5-1-10 3.5-.5 5 2 1-8 8 3 .5-6.5v-2l.5-1.5z" class="g AQ AR"/><path d="M3.5 51v1-1z" class="AG AH AI"/><path d="M79.5 51v1-1z" class="N O P"/><path d="M10.5 53l.5 1.5h-1l.5-1.5z" class="p q r"/><path d="M79.5 53v1-1z" class="y z AA"/><path d="M88.5 53v1-1z" class="t u v"/><path d="M79.5 54l.5 2.5h-1l.5-2.5z" class="N O P"/><path d="M83.5 54v1-1z" class="y z AA"/><path d="M90.5 54v1-1z" class="t u v"/><path d="M248.5 54v1-1z" class="AG AH AI"/><path d="M249.5 54l1.5.5-2.5 1.5 1-2z" class="E F G"/><path d="M85.5 55v1-1z" class="B C D"/><path d="M91.5 55v1-1z" class="y z AA"/><path d="M249.5 55l.5 1.5h-1l.5-1.5z" class="a b c"/><path d="M250.5 55l7.5 4.5-1.5 2.5-4.5 2.5.5 1.5 4.5 2.5-.5 2.5-5.5 2.5 6 4-.5 2.5-8 3 3-4 1.5-.5-5-6 5-3-.5-1.5-4.5-2.5.5-2.5 5.5-2.5-4-3 .5-2.5z" class="g AO AP"/><path d="M251.5 55v1-1zm-241 1v1-1z" class="c a b"/><path d="M72.5 56v1-1z" class="t u v"/><path d="M89.5 56l1.5.5-1.5.5v-1z" class="AD AE AF"/><path d="M91.5 56l.5 1.5-1.5.5 1-2z" class="t u v"/><path d="M8.5 57v1-1z" class="S w x"/><path d="M138.5 57v1-1z" class="B C D"/><path d="M140.5 57v1-1z" class="H I J"/><g class="Q R"><path d="M138.5 58v1-1z" class="Z"/><path d="M139.5 58v1-1z" class="s"/><path d="M140.5 58v1-1z" class="Z"/></g><path d="M161.5 58v1-1zm17 0v1-1z" class="D B C"/><path d="M179.5 58l4.5 1.5 7 15-.5 1.5 1.5.5-4.5 1.5-7-11-8 11-2 1-5.5-3.5-4.5-7.5-10 13-3.5-2.5-6.5-11.5-7 10-3 1-1.5-2.5 9.5-16.5 5.5 1.5 1.5 4.5 1.5.5 4.5 6.5 7-13 5.5 2.5 5.5 11.5 10-15z" class="Q R g"/><path d="M256.5 58v1-1z" class="AG AH AI"/><path d="M317.5 58v1-1z" class="S h i"/><path d="M137.5 59v1-1zm25 0v1-1z" class="J H I"/><path d="M258.5 59v1-1zm57 0v1-1z" class="D B C"/><path d="M316.5 59l3.5.5-1.5 13.5-9-4-1 8-2.5-1.5.5-10.5 9 3 1-9z" class="g AQ AR"/><path d="M258.5 60v1-1z" class="E F G"/><path d="M315.5 60v1-1z" class="T U V"/><path d="M75.5 61l-1 2 1-2z" class="N O P"/><path d="M144.5 61v1-1zm12 0v1-1z" class="D B C"/><path d="M257.5 61v1-1z" class="p q r"/><path d="M315.5 61v1-1z" class="S h i"/><path d="M62.5 62l-.5 1.5-.5 1.5-.5-1.5 1.5-1.5z" class="N O P"/><path d="M82.5 62v1-1z" class="t u v"/><g class="Q R"><path d="M144.5 62v1-1z" class="Z"/><path d="M164.5 62v1-1z" class="s"/></g><path d="M175.5 62v1-1z" class="B C D"/><path d="M249.5 62v1-1z" class="E F G"/><path d="M255.5 62v1-1z" class="S w x"/><path d="M315.5 62v1-1z" class="K L M"/><path d="M66.5 63v1-1z" class="t u v"/><path d="M74.5 63v1-1z" class="AL AM AN"/><path d="M80.5 63v1-1z" class="t u v"/><path d="M81.5 63v1-1z" class="AL AM AN"/><path d="M82.5 63v1-1z" class="AD AE AF"/><path d="M145.5 63v1-1z" class="H I J"/><path d="M315.5 63v1-1z" class="N O P"/><path d="M319.5 63v1-1z" class="B C D"/><path d="M74.5 64v1-1z" class="y z AA"/><path d="M145.5 64v1-1z" class="Q R s"/><path d="M247.5 64v1-1zm5 0v1-1z" class="G E F"/><path d="M306.5 64l-.5 1.5-.5 1.5-1.5-.5 2.5-2.5z" class="N O P"/><path d="M319.5 64l.5 5.5h-1l.5-5.5z" class="AJ AK"/><path d="M71.5 65v1-1z" class="y z AA"/><path d="M74.5 65v1-1z" class="AD AE AF"/><path d="M252.5 65v1-1z" class="a b c"/><path d="M309.5 65v1-1z" class="AL AM AN"/><path d="M310.5 65v1-1z" class="B C D"/><g class="Q R"><path d="M133.5 66v1-1z" class="Z"/><path d="M147.5 66v1-1z" class="s"/></g><path d="M187.5 66v1-1z" class="H I J"/><path d="M249.5 66v1-1z" class="p q r"/><path d="M311.5 66v1-1z" class="S h i"/><path d="M312.5 66v1-1z" class="N O P"/><path d="M67.5 67v1-1z" class="y z AA"/><path d="M140.5 67v1-1z" class="H I J"/><path d="M167.5 67v1-1z" class="B C D"/><path d="M172.5 67v1-1z" class="Q R Z"/><path d="M314.5 67v1-1z" class="T U V"/><path d="M.5 68v1-1z" class="g AO AP"/><path d="M69.5 68v1-1z" class="AD AE AF"/><path d="M74.5 68v1-1z" class="y z AA"/><path d="M152.5 68v1-1zm27 0v1-1z" class="D B C"/><path d="M181.5 68v1-1z" class="H I J"/><path d="M188.5 68v1-1z" class="Q R Z"/><path d="M252.5 68v1-1z" class="d e f"/><path d="M257.5 68v1-1z" class="B C D"/><path d="M.5 69v1-1z" class="S w x"/><path d="M1.5 69v1-1z" class="W X Y"/><path d="M71.5 69v1-1zm3 0v1-1z" class="P N O"/><path d="M149.5 69v1-1zm12 0v1-1z" class="Z Q R"/><path d="M168.5 69v1-1z" class="B C D"/><path d="M252.5 69v1-1zm5 0v1-1z" class="G E F"/><path d="M309.5 69v1-1z" class="S h i"/><path d="M310.5 69v1-1z" class="N O P"/><path d="M.5 70v1-1z" class="g AO AP"/><path d="M1.5 70l-1 2 1-2z" class="a b c"/><path d="M131.5 70v1-1z" class="Q R s"/><path d="M138.5 70v1-1z" class="H I J"/><path d="M151.5 70v1-1z" class="B C D"/><path d="M158.5 70v1-1z" class="H I J"/><path d="M309.5 70v1-1z" class="AD AE AF"/><path d="M312.5 70v1-1z" class="T U V"/><path d="M319.5 70v1-1z" class="B C D"/><path d="M1.5 71l1 2-1-2z" class="E F G"/><path d="M2.5 71v1-1z" class="p q r"/><path d="M62.5 71l.5 1.5h-1l.5-1.5z" class="t u v"/><path d="M130.5 71v1-1zm21 0v1-1zm18 0l1.5.5-2 1 .5-1.5z" class="Z Q R"/><path d="M177.5 71v1-1z" class="B C D"/><path d="M309.5 71v1-1z" class="t u v"/><path d="M319.5 71v1-1z" class="N O P"/><path d="M.5 72v1-1z" class="AG AH AI"/><path d="M1.5 72v1-1z" class="W X Y"/><path d="M65.5 72l.5 1.5-2 1 1.5-2.5z" class="AD AE AF"/><path d="M130.5 72v1-1z" class="Q R s"/><path d="M176.5 72v1-1z" class="H I J"/><path d="M190.5 72l.5 1.5h-1l.5-1.5z" class="Q R Z"/><path d="M247.5 72l.5 1.5h-1l.5-1.5z" class="p q r"/><path d="M309.5 72v1-1z" class="K L M"/><path d="M319.5 72v1-1z" class="B C D"/><path d="M.5 73l1.5.5-1.5.5v-1z" class="S w x"/><path d="M2.5 73l-1 2 1-2z" class="B C D"/><path d="M62.5 73l2.5 3.5-3-2 .5-1.5z" class="N O P"/><path d="M129.5 73v1-1z" class="B C D"/><path d="M156.5 73v1-1z" class="Q R Z"/><path d="M191.5 73l.5 1.5h-1l.5-1.5z" class="B C D"/><path d="M248.5 73l.5 1.5h-1l.5-1.5z" class="a b c"/><path d="M251.5 73v1-1z" class="E F G"/><path d="M309.5 73v1-1z" class="N O P"/><path d="M63.5 74l2.5 1.5-1.5.5-1-2z" class="t u v"/><path d="M65.5 74v1-1z" class="y z AA"/><path d="M128.5 74v1-1z" class="H I J"/><g class="Q R"><path d="M129.5 74v1-1z" class="Z"/><path d="M135.5 74v1-1z" class="s"/></g><path d="M128.5 75v1-1zm46 0v1-1z" class="D B C"/><g class="Q R"><path d="M190.5 75v1-1z" class="s"/><path d="M191.5 75v1-1z" class="Z"/></g><path d="M249.5 75v1-1z" class="W X Y"/><path d="M128.5 76l1.5.5-1.5.5v-1z" class="Q R s"/><path d="M186.5 76v1-1z" class="H I J"/><path d="M192.5 76v1-1z" class="B C D"/><path d="M306.5 76l1.5 2.5h-1l-.5-2.5z" class="T U V"/><path d="M128.5 77l1 2-2.5-.5 1.5-1.5z" class="H I J"/><g class="Q R"><path d="M129.5 77l1 2-1-2z" class="Z"/><path d="M132.5 77l.5 1.5-1.5.5 1-2z" class="s"/></g><path d="M133.5 77v1-1zm33 0v1-1z" class="J H I"/><g class="Q R"><path d="M190.5 77l.5 1.5-1.5.5 1-2z" class="s"/><path d="M191.5 77v1-1z" class="Z"/></g><path d="M306.5 77v1-1z" class="K L M"/><path d="M308.5 77v1-1z" class="j k l"/><path d="M153.5 78v1-1z" class="H I J"/><g class="Q R"><path d="M167.5 78l3.5 1.5-1.5-.5-2-1z" class="s"/><path d="M171.5 78l.5 1.5-2.5.5-1.5-.5 1.5-.5 1.5.5.5-1.5z" class="Z"/></g><path d="M188.5 78v1-1z" class="H I J"/><path d="M191.5 78l-2 3 2-3z" class="B C D"/><path d="M192.5 78v1-1z" class="Q R s"/><path d="M308.5 78v1-1z" class="y z AA"/><path d="M128.5 79l2.5.5-1.5 2.5-1-3z" class="B C D"/><path d="M129.5 79v1-1z" class="Q R s"/><path d="M131.5 79v1-1z" class="H I J"/><path d="M152.5 79v1-1z" class="Q R s"/><path d="M172.5 79v1-1z" class="B C D"/><g class="Q R"><path d="M188.5 79v1-1z" class="Z"/><path d="M191.5 79v1-1z" class="g"/></g><path d="M306.5 79v1-1z" class="B C D"/><path d="M307.5 79v1-1z" class="K L M"/><path d="M308.5 79v1-1z" class="N O P"/><g class="Q R"><path d="M128.5 80v1-1z" class="Z"/><path d="M131.5 80v1-1z" class="s"/></g><path d="M151.5 80v1-1z" class="B C D"/><path d="M168.5 80v1-1z" class="H I J"/><path d="M169.5 80v1-1z" class="Q R g"/><path d="M190.5 80l.5 1.5h-1l.5-1.5z" class="H I J"/><path d="M249.5 80v1-1z" class="a b c"/><path d="M255.5 80v1-1zm-86 1v1-1z" class="D B C"/><path d="M247.5 81v1-1z" class="E F G"/><path d="M248.5 81v1-1z" class="d e f"/><path d="M253.5 81v1-1z" class="W X Y"/><path d="M151.5 82v1-1z" class="B C D"/><path d="M246.5 82v1-1z" class="W X Y"/><path d="M247.5 82v1-1z" class="p q r"/><path d="M250.5 82v1-1z" class="a b c"/><path d="M251.5 82v1-1z" class="B C D"/><path d="M247.5 83l1.5.5-1.5.5v-1zm54 12l.5 3.5-2 1 .5-1.5-1.5-.5.5-1.5 2-1z" class="G E F"/><path d="M302.5 96v1-1z" class="B C D"/><path d="M303.5 96v1-1z" class="m n o"/><path d="M304.5 96l3.5 2.5-1.5-.5-2-2z" class="E F G"/><path d="M305.5 96v1-1z" class="m n o"/><path d="M302.5 97v1-1z" class="j k l"/><path d="M303.5 97v1-1z" class="S h i"/><path d="M304.5 97v1-1z" class="d e f"/><path d="M297.5 98v1-1z" class="B C D"/><path d="M299.5 98v1-1z" class="K L M"/><path d="M300.5 98v1-1z" class="m n o"/><path d="M302.5 98l1 2-1-2z" class="d e f"/><path d="M303.5 98l16.5 8.5-1.5 6.5-10.5 6.5 12 7-.5 2.5-3-1-1.5 3.5-.5 1.5-8.5-.5 7-4-8-5-.5-1.5-5.5-3.5 14-9-9-7-2-3 1.5-1.5z" class="g AB AC"/><path d="M308.5 98v1-1z" class="d e f"/><path d="M301.5 99v1-1z" class="K L M"/><path d="M309.5 99v1-1z" class="E F G"/><path d="M301.5 100v1-1z" class="m n o"/><path d="M302.5 100l1 2-1-2z" class="j k l"/><path d="M311.5 100v1-1z" class="d e f"/><path d="M302.5 101v1-1zm11 0v1-1z" class="G E F"/><path d="M305.5 103v1-1z" class="d e f"/><path d="M316.5 103v1-1z" class="E F G"/><path d="M3.5 104l11.5 5.5-2.5 1.5-5-2-2 8-5.5-1.5.5-3.5 3 2 .5-1.5-.5-8.5z" class="Q R Z"/><path d="M319.5 105v1-1z" class="K L M"/><path d="M309.5 106v1-1z" class="j k l"/><path d="M12.5 107v1-1z" class="H I J"/><path d="M14.5 108v1-1z" class="B C D"/><path d="M316.5 108l2.5 1.5-2.5.5v-2z" class="d e f"/><path d="M9.5 109v1-1z" class="B C D"/><path d="M15.5 109l.5 2.5-1.5.5-.5-1.5 1.5-1.5zm-12 3l.5 1.5H3l.5-1.5z" class="J H I"/><path d="M319.5 112v1-1zm-14 1v1-1z" class="f d e"/><path d="M317.5 113v1-1z" class="K L M"/><path d="M318.5 113v1-1z" class="B C D"/><path d="M319.5 113l.5 11.5-1.5.5-9.5-5.5 10.5-6.5z" class="AJ AK"/><path d="M303.5 114v1-1z" class="K L M"/><path d="M315.5 114l1.5.5-1.5.5v-1z" class="E F G"/><path d="M59.5 115v1-1z" class="m n o"/><path d="M60.5 115v1-1z" class="E F G"/><path d="M314.5 115v1-1z" class="d e f"/><path d="M6.5 116l-1 2-1.5-.5 2.5-1.5z" class="H I J"/><path d="M57.5 116l3.5 1.5 1 3h-4l-.5 3.5-1.5-6.5 1.5-1.5z" class="T U V"/><path d="M59.5 116l-1 2-1.5.5-1.5 7.5-8 5-4.5-2.5L59.5 116z" class="g AB AC"/><path d="M60.5 116v1-1z" class="K L M"/><path d="M300.5 116v1-1z" class="d e f"/><path d="M6.5 117v1-1zm55 0v1-1zm93 0v1-1z" class="D B C"/><path d="M155.5 117l2 9 7-3 1.5 3.5-1.5 6.5-2.5-.5-.5-4.5-8 3-.5-7.5.5-1.5-7 2-.5-2.5 9.5-4.5z" class="Q R Z"/><path d="M156.5 117v1-1z" class="B C D"/><path d="M249.5 117v1-1z" class="N O P"/><path d="M250.5 117v1-1z" class="S w x"/><path d="M251.5 117l7.5 5.5-.5 1.5-6-2-3 8-6-2-1 5-12.5-.5 2.5-4.5 7 4 1-9 8 4 1-9 2-1z" class="g AO AP"/><path d="M299.5 117v1-1z" class="S h i"/><path d="M311.5 117v1-1z" class="K L M"/><path d="M61.5 118l1 2-1-2z" class="g AB AC"/><path d="M62.5 118v1-1z" class="E F G"/><path d="M156.5 118v1-1z" class="H I J"/><path d="M253.5 118v1-1z" class="N O P"/><path d="M309.5 118v1-1z" class="d e f"/><path d="M53.5 119v1-1z" class="T U V"/><path d="M59.5 119l5.5 13.5-5.5.5-1.5-12.5 1.5-1.5z" class="g AB AC"/><path d="M297.5 119v1-1z" class="K L M"/><path d="M299.5 119v1-1z" class="E F G"/><path d="M308.5 119v1-1zm-246 1v1-1z" class="M K L"/><path d="M147.5 120v1-1z" class="H I J"/><path d="M300.5 120v1-1z" class="j k l"/><path d="M309.5 120l1.5.5-1.5.5v-1z" class="d e f"/><path d="M62.5 121v1-1z" class="m n o"/><path d="M145.5 121v1-1z" class="B C D"/><path d="M258.5 121v1-1z" class="W X Y"/><path d="M301.5 121v1-1z" class="E F G"/><path d="M312.5 121v1-1z" class="j k l"/><path d="M49.5 122v1-1zm13 0v1-1z" class="S h i"/><path d="M144.5 122l1.5.5-.5 2.5-1.5-.5.5-2.5zm7 0v1-1zm2 0v1-1z" class="J H I"/><path d="M259.5 122l1 2-1-2z" class="AG AH AI"/><path d="M304.5 122v1-1z" class="d e f"/><path d="M314.5 122v1-1z" class="E F G"/><path d="M48.5 123v1-1z" class="T U V"/><path d="M63.5 123v1-1z" class="B C D"/><path d="M76.5 123v1-1z" class="m n o"/><path d="M77.5 123l2.5 1.5 2 8-4.5.5-1-3-10 3 6-7 5-3z" class="g AB AC"/><path d="M144.5 123v1-1z" class="Q R Z"/><path d="M148.5 123v1-1z" class="H I J"/><path d="M248.5 123l.5 2.5h-1l.5-2.5z" class="B C D"/><path d="M259.5 123l.5 1.5h-1l.5-1.5z" class="a b c"/><path d="M47.5 124l-1 2-1.5-.5 2.5-1.5zm10 0v1-1zm6 0v1-1z" class="l j k"/><path d="M165.5 124v1-1z" class="H I J"/><path d="M244.5 124v1-1z" class="a b c"/><path d="M257.5 124v1-1z" class="N O P"/><path d="M258.5 124v1-1z" class="AG AH AI"/><path d="M260.5 124v1-1z" class="S w x"/><path d="M306.5 124v1-1z" class="j k l"/><path d="M56.5 125l1.5.5-.5 7.5-11.5-.5 10.5-7.5z" class="AJ AK"/><path d="M63.5 125v1-1z" class="T U V"/><path d="M73.5 125v1-1zm7 0v1-1z" class="M K L"/><path d="M239.5 125v1-1zm7 0v1-1z" class="D B C"/><path d="M259.5 125l1.5.5-1.5.5v-1z" class="W X Y"/><path d="M319.5 125v1-1z" class="B C D"/><path d="M44.5 126l-1 2 1-2z" class="E F G"/><path d="M45.5 126v1-1z" class="m n o"/><path d="M54.5 126v1-1z" class="T U V"/><path d="M239.5 126l.5 2.5h-1l.5-2.5z" class="N O P"/><path d="M248.5 126v1-1z" class="W X Y"/><path d="M44.5 127v1-1z" class="T U V"/><path d="M165.5 127v1-1z" class="H I J"/><path d="M42.5 128v1-1z" class="K L M"/><path d="M51.5 128v1-1z" class="T U V"/><path d="M160.5 128v1-1zm5 0l.5 1.5h-1l.5-1.5z" class="D B C"/><path d="M230.5 128v1-1z" class="W X Y"/><path d="M231.5 128l-1 2 1-2z" class="a b c"/><path d="M233.5 128v1-1z" class="W X Y"/><path d="M251.5 128l-1 2 1-2z" class="a b c"/><path d="M312.5 128v1-1zm4 0l3.5 1.5-.5 2.5-4 1-1.5-2.5 2.5-2.5z" class="f d e"/><path d="M42.5 129v1-1z" class="j k l"/><path d="M43.5 129l1 2 2-1 .5 1.5-4-1 .5-1.5zm21 0v1-1z" class="V T U"/><path d="M81.5 129v1-1z" class="B C D"/><path d="M172.5 129l2.5 1.5-.5 2.5-8.5-.5 6.5-3.5z" class="Q R Z"/><path d="M234.5 129v1-1z" class="AG AH AI"/><path d="M251.5 129v1-1z" class="S w x"/><path d="M41.5 130v1-1z" class="E F G"/><path d="M42.5 130v1-1z" class="m n o"/><path d="M44.5 130l-1 2 1-2z" class="S h i"/><path d="M48.5 130v1-1z" class="K L M"/><path d="M67.5 130v1-1z" class="B C D"/><path d="M75.5 130l1.5.5-.5 2.5h-2l-1.5-.5 2.5-2.5z" class="T U V"/><path d="M81.5 130v1-1z" class="K L M"/><path d="M95.5 130l3.5 1.5-.5 1.5-6.5-.5 3-1 .5-1.5z" class="g AB AC"/><path d="M169.5 130v1-1z" class="H I J"/><path d="M248.5 130v1-1z" class="B C D"/><path d="M249.5 130v1-1z" class="S w x"/><path d="M250.5 130v1-1z" class="p q r"/><path d="M251.5 130v1-1z" class="W X Y"/><path d="M41.5 131v1-1z" class="B C D"/><path d="M42.5 131v1-1z" class="K L M"/><path d="M66.5 131l-1 2 1-2z" class="m n o"/><path d="M81.5 131v1-1zm13 0v1-1z" class="V T U"/><path d="M250.5 131l1.5.5-1.5.5v-1z" class="B C D"/><path d="M307.5 131v1-1zm-264 1v1-1z" class="G E F"/><path d="M44.5 132v1-1z" class="K L M"/><path d="M58.5 132v1-1z" class="m n o"/><path d="M75.5 132v1-1z" class="S h i"/><path d="M99.5 132v1-1z" class="T U V"/><path d="M165.5 132v1-1z" class="H I J"/><path d="M318.5 132v1-1z" class="E F G"/><path d="M319.5 132v1-1z" class="AJ AK"/></svg>