<?xml version="1.0" encoding="UTF-8"?>
<svg width="2588px" height="1080px" viewBox="0 0 2588 1080" version="1.1" xmlns="http://www.w3.org/2000/svg" xmlns:xlink="http://www.w3.org/1999/xlink">
    <title>Artboard</title>
    <g id="Artboard" stroke="none" stroke-width="1" fill="none" fill-rule="evenodd">
        <rect id="Rectangle" fill="#E6E6E6" x="2287" y="-315" width="645" height="719"></rect>
        <polygon id="Rectangle" fill="#DBDBDB" points="-10 1.75468363e-13 731.056629 -244.272114 143 1286.62981 -10 1080"></polygon>
        <polygon id="Rectangle" fill="#CECECE" points="394.538051 -99.0120287 642 -99.0120287 1151.28786 1080 150.042555 1107.32498"></polygon>
        <polygon id="Rectangle" fill="#ECECEC" transform="translate(1918.665210, 603.168502) scale(-1, 1) translate(-1918.665210, -603.168502) " points="1662.53805 1.14394899e-13 1910 1.4046568e-13 2419.28786 1179.01203 1418.04256 1206.337"></polygon>
        <polygon id="Rectangle" fill="#E9E9E9" transform="translate(877.500000, 505.668502) scale(1, -1) translate(-877.500000, -505.668502) " points="825.907499 -195 1312 -195 1208.10943 1206.337 443 1176.337"></polygon>
        <polygon id="Rectangle" fill="#DEDEDE" transform="translate(1474.665210, 562.168502) scale(1, -1) translate(-1474.665210, -562.168502) " points="1218.53805 -41 1466 -41 1975.28786 1138.01203 974.042555 1165.337"></polygon>
        <polygon id="Rectangle" fill="#F4F4F4" points="2016 -244.272114 2246 -82 3203.5 1097.01203 2540.766 1369 2338.59168 1218.07699"></polygon>
        <g id="Group" transform="translate(1293.808359, 540.158796) rotate(-30.000000) translate(-1293.808359, -540.158796) translate(936.053985, 272.318402)" fill="#000000" fill-rule="nonzero">
            <path d="M137.193399,161.681598 C138.135769,161.690404 139.077685,161.72926 140.018514,161.799618 C140.967073,161.870554 141.912662,161.973353 142.855232,162.108032 C143.798011,162.242775 144.735705,162.409213 145.66732,162.607167 C146.599699,162.80528 147.524805,163.034728 148.436102,163.293668 C149.350585,163.55327 150.255827,163.843413 151.153142,164.16459 C152.046735,164.484534 152.929085,164.834173 153.803508,165.214956 C154.67385,165.594157 155.53103,166.002257 156.372076,166.437717 C157.215165,166.874125 158.043236,167.338482 158.857888,167.831757 C159.666931,168.321763 160.459293,168.838345 161.235298,169.381723 C162.012525,169.926018 162.771186,170.495905 163.507994,171.088729 C164.244517,171.681155 164.961027,172.2976 165.657414,172.937897 C166.354583,173.578948 167.030181,174.242779 167.68074,174.925794 C168.331349,175.608625 168.959176,176.312462 169.568559,177.042482 C170.171412,177.765141 170.750328,178.507136 171.314529,179.281085 C171.865064,180.037366 172.390902,180.811087 172.892068,181.602224 C173.27046,182.199596 173.634053,182.806026 173.98337,183.422479 L174.327947,184.042308 L248.424049,319.969648 L319.824377,185.40316 C320.164375,184.760187 320.520609,184.126188 320.892928,183.501522 L321.270602,182.879982 C321.768596,182.075955 322.292334,181.288692 322.84031,180.520666 C323.399219,179.737169 323.984103,178.973021 324.573717,178.254226 C325.186833,177.504666 325.825078,176.776476 326.464627,176.095172 C327.122983,175.391804 327.804641,174.711212 328.510205,174.052831 C329.204583,173.404984 329.919702,172.780526 330.679583,172.160048 C331.415759,171.560519 332.171025,170.98574 332.969332,170.41891 C333.750435,169.865742 334.549448,169.339162 335.344381,168.852685 C336.169328,168.346648 337.01105,167.8692 337.864713,167.422878 C338.715739,166.977733 339.581123,166.561664 340.460073,166.175091 C341.339284,165.788405 342.230895,165.431733 343.138002,165.104025 C344.046428,164.77602 344.965521,164.479285 345.881588,164.217724 C346.806714,163.953019 347.74021,163.719937 348.686202,163.517634 C349.628431,163.31635 350.576855,163.147318 351.53075,163.010665 C352.486331,162.873779 353.445994,162.769663 354.400838,162.698987 C355.362172,162.627508 356.325347,162.58891 357.294809,162.583161 C358.256687,162.577669 359.218083,162.60487 360.183125,162.665046 C361.143417,162.725127 362.101104,162.817822 363.06605,162.944467 C364.01593,163.069573 364.961149,163.226743 365.910349,163.417656 C366.853018,163.607648 367.788811,163.829589 368.71631,164.083111 C369.646385,164.33732 370.567166,164.62307 371.471972,164.938044 C372.383643,165.255145 373.283754,165.603163 374.15073,165.972815 C375.043806,166.352586 375.923087,166.762774 376.782694,167.200416 C377.633772,167.633462 378.469929,168.09481 379.308592,168.594764 C380.127512,169.083915 380.929757,169.600211 381.71124,170.140782 C382.503034,170.688284 383.275825,171.262269 384.029782,171.862879 C384.775146,172.456703 385.500447,173.07504 386.227445,173.737734 C386.925269,174.375426 387.601947,175.035755 388.279612,175.741708 C388.936203,176.427547 389.56999,177.134783 390.178544,177.860596 C390.791241,178.591175 391.379445,179.341708 391.941745,180.110318 C392.502599,180.876854 393.038052,181.661509 393.566478,182.493356 C393.945654,183.092162 394.310077,183.700027 394.661204,184.319597 L395.007954,184.943166 L468.318049,319.427648 L537.63081,185.114481 C537.957071,184.480944 538.298871,183.855829 538.656592,183.238527 L539.019635,182.623806 C539.511005,181.807458 540.029166,181.00793 540.551159,180.25851 C541.096671,179.472501 541.66817,178.705384 542.244033,177.984205 C542.835084,177.241834 543.450262,176.519572 544.114744,175.789858 C544.743839,175.101169 545.394458,174.433267 546.090857,173.762913 C546.769867,173.111138 547.469593,172.482046 548.189052,171.876571 C548.916447,171.26439 549.663667,170.67691 550.426154,170.11752 C551.191525,169.555781 551.974974,169.019963 552.795882,168.497747 C553.597678,167.988797 554.415773,167.506903 555.22558,167.065605 C556.071122,166.60357 556.932012,166.170751 557.788509,165.776269 C558.655857,165.375865 559.536153,165.004994 560.412867,164.669988 C561.310813,164.326147 562.22005,164.013169 563.126072,163.735531 C564.041329,163.454461 564.96551,163.204604 565.882733,162.989749 C566.814024,162.770958 567.752201,162.583882 568.70068,162.427964 C569.641725,162.273447 570.587317,162.150743 571.531501,162.060471 C572.484521,161.969151 573.440008,161.91025 574.39221,161.883949 C575.348106,161.857355 576.304324,161.863166 577.255302,161.90119 C578.211415,161.939236 579.165565,162.009655 580.111481,162.111859 C581.061082,162.214245 582.006682,162.348717 582.946981,162.515019 C583.884119,162.680747 584.815141,162.877863 585.750243,163.108846 C586.676891,163.338203 587.595177,163.598697 588.490833,163.885767 C589.405068,164.178197 590.308598,164.501495 591.184165,164.848855 C592.069869,165.199475 592.943287,165.579607 593.805778,165.989939 C594.665941,166.399269 595.511744,166.837183 596.346169,167.305278 C597.175824,167.770887 597.989413,168.263971 598.791275,168.787371 C599.58137,169.303375 600.354242,169.845244 601.109056,170.412431 C601.873483,170.986841 602.618163,171.586658 603.343252,172.212106 C604.053093,172.824465 604.742765,173.459679 605.436229,174.141271 C606.106097,174.801528 606.754102,175.483366 607.377822,176.184028 C608.00821,176.892012 608.614731,177.620381 609.196908,178.368315 C609.782731,179.120921 610.343065,179.89262 610.856972,180.652468 C611.256591,181.241366 611.641412,181.83988 612.011899,182.448746 L612.377625,183.061091 L709.562734,348.908016 L668.149364,373.175954 L575.865049,215.692648 L506.38195,350.337627 C506.023942,351.032217 505.647149,351.716478 505.26935,352.360902 L504.98609,352.83629 C504.490829,353.659166 503.968561,354.464867 503.396672,355.285699 C502.85021,356.067287 502.278551,356.830256 501.701633,357.549364 C501.092112,358.311187 500.456937,359.051478 499.797407,359.768692 C499.1519,360.470717 498.483779,361.150846 497.770419,361.830488 C497.085656,362.481171 496.380364,363.109125 495.604123,363.75602 C494.873795,364.361361 494.124137,364.942355 493.35796,365.49685 C492.564777,366.071029 491.752278,366.617219 490.957536,367.112202 C490.1355,367.626263 489.296671,368.111803 488.442039,368.568206 C487.593188,369.02153 486.729596,369.445912 485.813584,369.858183 C484.947268,370.246299 484.068665,370.605589 483.150746,370.946093 C482.242673,371.281688 481.323722,371.586 480.394096,371.858951 C479.46228,372.132514 478.521797,372.373845 477.622395,372.571853 C476.661945,372.785459 475.694535,372.965103 474.728202,373.109604 C473.778817,373.251852 472.825214,373.36201 471.820675,373.443758 C470.867092,373.519495 469.911719,373.563229 468.956162,373.574875 C467.982612,373.586774 467.009572,373.565018 466.040629,373.509783 C465.067642,373.454424 464.097255,373.365392 463.130295,373.24281 C462.173435,373.121502 461.221408,372.967795 460.283653,372.783432 C459.331394,372.596579 458.386254,372.377166 457.44801,372.125106 C456.517088,371.874965 455.595282,371.593421 454.685917,371.281532 C453.770033,370.967519 452.86535,370.622301 451.957023,370.239676 C451.06925,369.864972 450.194646,369.460335 449.314215,369.01626 C448.456786,368.582807 447.614302,368.120623 446.823227,367.651322 C445.980179,367.153202 445.155126,366.626134 444.338382,366.063466 C443.557958,365.525212 442.795595,364.961731 442.022253,364.34984 C441.274589,363.756373 440.547107,363.138527 439.813554,362.472368 C439.108575,361.830242 438.425116,361.165089 437.765814,360.479532 C437.097017,359.784261 436.451951,359.066751 435.832229,358.328791 C435.21847,357.598021 434.629049,356.847245 434.065651,356.078577 C433.4974,355.303407 432.9553,354.509633 432.429726,353.681846 C432.045787,353.076079 431.677107,352.461116 431.325258,351.839936 L430.979077,351.216795 L357.603049,216.612648 L286.181482,351.220451 C285.849718,351.844895 285.503003,352.460916 285.138094,353.073725 L284.766999,353.685657 C284.263923,354.499289 283.734375,355.295438 283.195883,356.049271 C282.634338,356.83746 282.046474,357.605987 281.433341,358.353426 C280.829194,359.089964 280.20131,359.805826 279.548368,360.502303 C278.903537,361.189974 278.237002,361.856157 277.499986,362.546142 C276.809616,363.188952 276.098679,363.808906 275.362545,364.409771 C274.610153,365.023555 273.837191,365.611051 273.09896,366.133017 C272.300522,366.701017 271.482863,367.240708 270.648277,367.750603 C269.851381,368.237548 269.039506,368.698554 268.155039,369.163753 C267.307896,369.606456 266.446556,370.020485 265.572374,370.40515 C264.6754,370.799872 263.765256,371.162865 262.901701,371.472608 C261.994841,371.800642 261.077518,372.097509 260.151536,372.362647 C259.213362,372.631317 258.26644,372.867095 257.370078,373.057363 C256.410114,373.263707 255.443631,373.436062 254.519788,373.567393 C253.554583,373.70665 252.585369,373.812199 251.609087,373.884218 C250.654695,373.954462 249.698632,373.992535 248.741805,373.999189 C247.76744,374.004367 246.793625,373.976495 245.873747,373.917986 C244.900726,373.858293 243.930387,373.764781 242.963533,373.637521 C242.006419,373.511534 241.054325,373.352925 240.154629,373.171175 C239.190078,372.978356 238.232886,372.751527 237.32932,372.50336 C236.384259,372.245835 235.44879,371.955342 234.567753,371.647456 C233.653526,371.330004 232.750612,370.981289 231.882352,370.611316 C230.989165,370.231807 230.109538,369.82171 229.263318,369.391089 C228.392072,368.948712 227.536854,368.47634 226.755221,368.008286 C225.913129,367.507284 225.089171,366.977203 224.306815,366.434305 C223.516507,365.88725 222.745127,365.313853 222.021749,364.737216 C221.262998,364.13429 220.525197,363.505571 219.835226,362.875633 C219.113129,362.218355 218.414198,361.536412 217.76368,360.856132 C217.103344,360.167661 216.466311,359.457742 215.852995,358.72691 C215.239231,357.995534 214.650136,357.244161 214.063205,356.442088 C213.507613,355.680305 212.976865,354.900598 212.464238,354.092432 C212.085796,353.495083 211.722056,352.888771 211.369224,352.266619 L211.019889,351.638931 L136.783049,215.454648 L47.7660826,373.461737 L5.9460149,349.90156 L99.6827529,183.515852 C100.145506,182.694233 100.634768,181.888365 101.150285,181.098681 C101.66557,180.309376 102.206269,179.537493 102.773399,178.781801 C103.339925,178.027071 103.930792,177.291488 104.543012,176.578576 C105.158282,175.861884 105.796663,175.165955 106.462542,174.486401 C107.123481,173.812285 107.806095,173.160405 108.507354,172.533567 C109.214512,171.901284 109.94212,171.292965 110.684349,170.713257 C111.433392,170.127894 112.201401,169.567977 112.982079,169.037856 C113.765311,168.505677 114.56561,167.999886 115.388908,167.517073 C116.207297,167.037492 117.041066,166.585511 117.887649,166.16251 C118.738541,165.737266 119.603079,165.340848 120.478531,164.974456 C121.354358,164.607818 122.241825,164.270726 123.143127,163.962482 C124.042359,163.65508 124.951267,163.378032 125.87367,163.130369 C126.791091,162.884242 127.716133,162.669027 128.651813,162.484172 C129.583931,162.30018 130.521593,162.147581 131.468842,162.025894 C132.413353,161.904758 133.361301,161.815525 134.311439,161.758304 C135.253008,161.701585 136.195245,161.676376 137.193399,161.681598 Z" id="Path" transform="translate(357.754374, 267.840394) rotate(-330.000000) translate(-357.754374, -267.840394) "></path>
        </g>
    </g>
</svg>