<?xml version="1.0" encoding="UTF-8"?>
<svg width="2588px" height="1080px" viewBox="0 0 2588 1080" version="1.1" xmlns="http://www.w3.org/2000/svg" xmlns:xlink="http://www.w3.org/1999/xlink">
    <title>Artboard</title>
    <defs>
        <circle id="path-1" cx="1294.5" cy="539.5" r="1293.5"></circle>
        <filter x="-1.8%" y="-1.8%" width="103.6%" height="103.6%" filterUnits="objectBoundingBox" id="filter-2">
            <feGaussianBlur stdDeviation="46" in="SourceAlpha" result="shadowBlurInner1"></feGaussianBlur>
            <feOffset dx="0" dy="1" in="shadowBlurInner1" result="shadowOffsetInner1"></feOffset>
            <feComposite in="shadowOffsetInner1" in2="SourceAlpha" operator="arithmetic" k2="-1" k3="1" result="shadowInnerInner1"></feComposite>
            <feColorMatrix values="0 0 0 0 1   0 0 0 0 1   0 0 0 0 1  0 0 0 1 0" type="matrix" in="shadowInnerInner1"></feColorMatrix>
        </filter>
        <circle id="path-3" cx="1294.5" cy="540.5" r="1083.5"></circle>
        <filter x="-2.1%" y="-2.1%" width="104.3%" height="104.3%" filterUnits="objectBoundingBox" id="filter-4">
            <feGaussianBlur stdDeviation="46" in="SourceAlpha" result="shadowBlurInner1"></feGaussianBlur>
            <feOffset dx="0" dy="1" in="shadowBlurInner1" result="shadowOffsetInner1"></feOffset>
            <feComposite in="shadowOffsetInner1" in2="SourceAlpha" operator="arithmetic" k2="-1" k3="1" result="shadowInnerInner1"></feComposite>
            <feColorMatrix values="0 0 0 0 1   0 0 0 0 1   0 0 0 0 1  0 0 0 1 0" type="matrix" in="shadowInnerInner1"></feColorMatrix>
        </filter>
        <circle id="path-5" cx="1295" cy="540" r="867"></circle>
        <filter x="-2.4%" y="-2.4%" width="104.8%" height="104.8%" filterUnits="objectBoundingBox" id="filter-6">
            <feGaussianBlur stdDeviation="41.5" in="SourceAlpha" result="shadowBlurInner1"></feGaussianBlur>
            <feOffset dx="0" dy="1" in="shadowBlurInner1" result="shadowOffsetInner1"></feOffset>
            <feComposite in="shadowOffsetInner1" in2="SourceAlpha" operator="arithmetic" k2="-1" k3="1" result="shadowInnerInner1"></feComposite>
            <feColorMatrix values="0 0 0 0 1   0 0 0 0 1   0 0 0 0 1  0 0 0 1 0" type="matrix" in="shadowInnerInner1"></feColorMatrix>
        </filter>
        <circle id="path-7" cx="1293.5" cy="540.5" r="693.5"></circle>
        <filter x="-2.8%" y="-2.8%" width="105.6%" height="105.6%" filterUnits="objectBoundingBox" id="filter-8">
            <feGaussianBlur stdDeviation="38" in="SourceAlpha" result="shadowBlurInner1"></feGaussianBlur>
            <feOffset dx="0" dy="1" in="shadowBlurInner1" result="shadowOffsetInner1"></feOffset>
            <feComposite in="shadowOffsetInner1" in2="SourceAlpha" operator="arithmetic" k2="-1" k3="1" result="shadowInnerInner1"></feComposite>
            <feColorMatrix values="0 0 0 0 1   0 0 0 0 1   0 0 0 0 1  0 0 0 1 0" type="matrix" in="shadowInnerInner1"></feColorMatrix>
        </filter>
        <circle id="path-9" cx="1296" cy="540" r="540"></circle>
        <filter x="-3.3%" y="-3.3%" width="106.7%" height="106.7%" filterUnits="objectBoundingBox" id="filter-10">
            <feGaussianBlur stdDeviation="35.5" in="SourceAlpha" result="shadowBlurInner1"></feGaussianBlur>
            <feOffset dx="0" dy="1" in="shadowBlurInner1" result="shadowOffsetInner1"></feOffset>
            <feComposite in="shadowOffsetInner1" in2="SourceAlpha" operator="arithmetic" k2="-1" k3="1" result="shadowInnerInner1"></feComposite>
            <feColorMatrix values="0 0 0 0 1   0 0 0 0 1   0 0 0 0 1  0 0 0 1 0" type="matrix" in="shadowInnerInner1"></feColorMatrix>
        </filter>
        <circle id="path-11" cx="1296" cy="540" r="366"></circle>
        <filter x="-4.9%" y="-4.9%" width="109.8%" height="109.8%" filterUnits="objectBoundingBox" id="filter-12">
            <feGaussianBlur stdDeviation="35.5" in="SourceAlpha" result="shadowBlurInner1"></feGaussianBlur>
            <feOffset dx="0" dy="1" in="shadowBlurInner1" result="shadowOffsetInner1"></feOffset>
            <feComposite in="shadowOffsetInner1" in2="SourceAlpha" operator="arithmetic" k2="-1" k3="1" result="shadowInnerInner1"></feComposite>
            <feColorMatrix values="0 0 0 0 1   0 0 0 0 1   0 0 0 0 1  0 0 0 1 0" type="matrix" in="shadowInnerInner1"></feColorMatrix>
        </filter>
        <circle id="path-13" cx="1296" cy="540" r="204"></circle>
        <filter x="-8.8%" y="-8.8%" width="117.6%" height="117.6%" filterUnits="objectBoundingBox" id="filter-14">
            <feGaussianBlur stdDeviation="35.5" in="SourceAlpha" result="shadowBlurInner1"></feGaussianBlur>
            <feOffset dx="0" dy="1" in="shadowBlurInner1" result="shadowOffsetInner1"></feOffset>
            <feComposite in="shadowOffsetInner1" in2="SourceAlpha" operator="arithmetic" k2="-1" k3="1" result="shadowInnerInner1"></feComposite>
            <feColorMatrix values="0 0 0 0 1   0 0 0 0 1   0 0 0 0 1  0 0 0 1 0" type="matrix" in="shadowInnerInner1"></feColorMatrix>
        </filter>
        <path d="M1231.5328,510.285557 C1231.79911,510.288046 1232.06529,510.299026 1232.33117,510.318909 C1232.59922,510.338955 1232.86644,510.368006 1233.13281,510.406065 C1233.39923,510.444143 1233.66422,510.491178 1233.92749,510.547119 C1234.19098,510.603105 1234.45241,510.667946 1234.70994,510.741121 C1234.96837,510.814483 1235.22418,510.896476 1235.47776,510.98724 C1235.73029,511.077654 1235.97964,511.176461 1236.22674,511.284068 C1236.4727,511.391229 1236.71493,511.506556 1236.95261,511.629615 C1237.19086,511.752942 1237.42487,511.884167 1237.65509,512.023564 C1237.88372,512.162038 1238.10764,512.308022 1238.32693,512.461578 C1238.54657,512.615393 1238.76097,512.776441 1238.96919,512.94397 C1239.17733,513.111387 1239.37981,513.285592 1239.5766,513.466537 C1239.77362,513.647695 1239.96454,513.835291 1240.14839,514.028308 C1240.33225,514.221273 1240.50967,514.420174 1240.68188,514.626474 C1240.85224,514.830694 1241.01584,515.040379 1241.17528,515.259093 C1241.33086,515.472815 1241.47946,515.691465 1241.62108,515.915037 C1241.72802,516.083851 1241.83077,516.255226 1241.92948,516.429433 L1242.02686,516.604593 L1262.96608,555.017051 L1283.1435,516.989164 C1283.23958,516.807463 1283.34025,516.628298 1283.44546,516.45177 L1283.55219,516.276125 C1283.69292,516.048911 1283.84093,515.826434 1283.99579,515.609393 C1284.15373,515.387981 1284.31902,515.172036 1284.48564,514.968907 C1284.6589,514.757085 1284.83927,514.551302 1285.02,514.358768 C1285.20605,514.16 1285.39868,513.967668 1285.59807,513.781612 C1285.7943,513.598533 1285.99639,513.422064 1286.21113,513.24672 C1286.41917,513.077296 1286.6326,512.914866 1286.8582,512.754682 C1287.07894,512.59836 1287.30474,512.44955 1287.52938,512.312074 C1287.76251,512.16907 1288.00037,512.034146 1288.24162,511.908017 C1288.48211,511.782221 1288.72667,511.664642 1288.97505,511.555398 C1289.22351,511.446122 1289.47548,511.345328 1289.73182,511.25272 C1289.98854,511.160027 1290.24827,511.076171 1290.50715,511.002255 C1290.76858,510.927451 1291.03239,510.861582 1291.29972,510.804413 C1291.56599,510.747531 1291.83401,510.699763 1292.10358,510.661146 C1292.37362,510.622462 1292.64482,510.593039 1292.91465,510.573067 C1293.18632,510.552867 1293.45851,510.541959 1293.73247,510.540335 C1294.0043,510.538783 1294.27598,510.54647 1294.5487,510.563475 C1294.82007,510.580454 1295.09071,510.606649 1295.3634,510.642438 C1295.63183,510.677793 1295.89895,510.722208 1296.16719,510.776159 C1296.43358,510.82985 1296.69803,510.89257 1296.96014,510.964214 C1297.22297,511.036052 1297.48318,511.116804 1297.73888,511.205814 C1297.99651,511.295426 1298.25088,511.393774 1298.49588,511.498236 C1298.74826,511.605557 1298.99674,511.721475 1299.23966,511.84515 C1299.48017,511.967527 1299.71647,512.097902 1299.95347,512.239187 C1300.18489,512.377419 1300.4116,512.523322 1300.63245,512.676085 C1300.8562,512.830806 1301.07459,512.993012 1301.28766,513.162741 C1301.49829,513.330553 1301.70326,513.505293 1301.90871,513.692567 C1302.10591,513.872776 1302.29713,514.059382 1302.48864,514.258881 C1302.67419,514.452696 1302.85329,514.652558 1303.02527,514.85767 C1303.19841,515.064128 1303.36464,515.276225 1303.52354,515.493431 C1303.68204,515.710051 1303.83335,515.93179 1303.98268,516.166867 C1304.08984,516.336086 1304.19282,516.507867 1304.29205,516.682954 L1304.39004,516.859172 L1325.10714,554.863884 L1344.69462,516.907585 C1344.78682,516.72855 1344.88341,516.551896 1344.9845,516.377449 L1345.08709,516.203731 C1345.22595,515.973035 1345.37238,515.747092 1345.5199,515.535309 C1345.67406,515.313187 1345.83556,515.096403 1345.9983,514.892601 C1346.16532,514.68281 1346.33917,514.478702 1346.52695,514.272488 C1346.70473,514.077868 1346.88859,513.889122 1347.08539,513.699682 C1347.27728,513.515494 1347.47502,513.337715 1347.67833,513.166611 C1347.88389,512.993611 1348.09505,512.827592 1348.31053,512.669511 C1348.52682,512.510766 1348.74822,512.359346 1348.9802,512.21177 C1349.20678,512.067943 1349.43797,511.931762 1349.66682,511.807053 C1349.90577,511.676484 1350.14905,511.554172 1350.39109,511.442693 C1350.6362,511.32954 1350.88497,511.224734 1351.13273,511.130063 C1351.38648,511.032895 1351.64343,510.944448 1351.89947,510.865989 C1352.15811,510.78656 1352.41928,510.715952 1352.67849,510.655235 C1352.94166,510.593405 1353.20679,510.540539 1353.47483,510.496477 C1353.74076,510.452811 1354.00798,510.418135 1354.2748,510.392625 C1354.54412,510.366818 1354.81414,510.350173 1355.08323,510.342741 C1355.35336,510.335225 1355.62358,510.336867 1355.89232,510.347613 C1356.16252,510.358364 1356.43216,510.378265 1356.69947,510.407147 C1356.96782,510.436081 1357.23504,510.474082 1357.50077,510.521078 C1357.7656,510.567912 1358.0287,510.623616 1358.29296,510.688891 C1358.55482,510.753706 1358.81433,510.827321 1359.06743,510.908445 C1359.32579,510.991085 1359.58113,511.082447 1359.82856,511.18061 C1360.07885,511.279693 1360.32568,511.387117 1360.56941,511.503075 C1360.81249,511.61875 1361.05151,511.742502 1361.28732,511.874784 C1361.52177,512.006363 1361.75169,512.145706 1361.97829,512.293617 C1362.20157,512.439437 1362.41998,512.592567 1362.63329,512.752851 C1362.84931,512.915177 1363.05975,513.084683 1363.26466,513.261432 C1363.46526,513.434481 1363.66016,513.61399 1363.85613,513.806605 C1364.04543,513.993191 1364.22855,514.185875 1364.40481,514.383879 C1364.58296,514.583952 1364.75436,514.789786 1364.91888,515.001149 C1365.08443,515.213832 1365.24278,515.43191 1365.388,515.64664 C1365.50094,515.81306 1365.60968,515.982197 1365.71438,516.15426 L1365.81773,516.327306 L1393.28181,563.194904 L1381.57858,570.052914 L1355.49944,525.548838 L1335.86383,563.598906 C1335.76266,563.795194 1335.65618,563.988563 1335.54942,564.170674 L1335.46937,564.305017 C1335.32941,564.537558 1335.18182,564.765245 1335.02021,564.997209 C1334.86578,565.218082 1334.70423,565.433694 1334.54119,565.63691 C1334.36895,565.852198 1334.18945,566.061401 1334.00307,566.264082 C1333.82065,566.462471 1333.63184,566.654673 1333.43025,566.846737 C1333.23674,567.030617 1333.03743,567.208074 1332.81807,567.390883 C1332.61168,567.56195 1332.39983,567.726136 1332.18331,567.882834 C1331.95916,568.045095 1331.72955,568.199445 1331.50496,568.339325 C1331.27266,568.484597 1331.03561,568.621808 1330.79409,568.750786 C1330.55421,568.878893 1330.31016,568.998821 1330.0513,569.115327 C1329.80649,569.225007 1329.5582,569.326541 1329.2988,569.422766 C1329.04218,569.517603 1328.78249,569.603601 1328.51978,569.680735 C1328.25645,569.758043 1327.99068,569.826242 1327.73651,569.882198 C1327.46509,569.942562 1327.19171,569.993329 1326.91862,570.034164 C1326.65033,570.074363 1326.38085,570.105493 1326.09697,570.128595 C1325.82749,570.149998 1325.55751,570.162357 1325.28747,570.165648 C1325.01235,570.16901 1324.73737,570.162862 1324.46356,570.147253 C1324.18859,570.131609 1323.91437,570.106449 1323.64111,570.071808 C1323.3707,570.037527 1323.10166,569.99409 1322.83666,569.94199 C1322.56756,569.889186 1322.30046,569.827181 1322.03532,569.75595 C1321.77224,569.685261 1321.51175,569.605698 1321.25476,569.517559 C1320.99594,569.428821 1320.74028,569.331264 1320.48359,569.223135 C1320.23271,569.117246 1319.98555,569.002897 1319.73675,568.877404 C1319.49444,568.754912 1319.25636,568.624301 1319.0328,568.491678 C1318.79456,568.350912 1318.56141,568.201965 1318.3306,568.042957 C1318.11005,567.890849 1317.89461,567.731612 1317.67607,567.558694 C1317.46478,567.390983 1317.2592,567.216383 1317.0519,567.028129 C1316.85268,566.846667 1316.65953,566.658698 1316.47322,566.464962 C1316.28422,566.268482 1316.10193,566.065717 1315.9268,565.857173 C1315.75335,565.650661 1315.58678,565.438494 1315.42757,565.221272 C1315.26698,565.002213 1315.11379,564.777896 1314.96526,564.543967 C1314.85676,564.37278 1314.75258,564.198994 1314.65315,564.023452 L1314.55532,563.847355 L1293.81958,525.808826 L1273.63617,563.848388 C1273.54241,564.024853 1273.44443,564.198938 1273.34131,564.372115 L1273.23644,564.545044 C1273.09427,564.774973 1272.94462,564.999961 1272.79245,565.212991 C1272.63376,565.435729 1272.46763,565.652912 1272.29436,565.864134 C1272.12363,566.072277 1271.9462,566.274576 1271.76168,566.471398 C1271.57945,566.66573 1271.39109,566.853991 1271.18281,567.048977 C1270.98772,567.230632 1270.78681,567.405829 1270.57878,567.575631 C1270.36616,567.749083 1270.14772,567.915107 1269.9391,568.062612 C1269.71347,568.223126 1269.4824,568.37564 1269.24655,568.519735 C1269.02135,568.657343 1268.79192,568.787621 1268.54197,568.919084 C1268.30257,569.04419 1268.05916,569.161193 1267.81212,569.269898 C1267.55864,569.381444 1267.30144,569.484025 1267.0574,569.571557 C1266.80113,569.664257 1266.5419,569.748151 1266.28022,569.823078 C1266.0151,569.899002 1265.7475,569.965632 1265.49419,570.019401 C1265.22291,570.077713 1264.94979,570.12642 1264.68871,570.163533 C1264.41595,570.202887 1264.14205,570.232714 1263.86616,570.253067 C1263.59645,570.272917 1263.32628,570.283677 1263.05588,570.285557 C1262.78053,570.28702 1262.50533,570.279144 1262.24538,570.26261 C1261.97041,570.24574 1261.6962,570.219314 1261.42297,570.183351 C1261.15249,570.147748 1260.88343,570.102926 1260.62918,570.051564 C1260.35661,569.997074 1260.08611,569.932973 1259.83076,569.862843 C1259.56369,569.790067 1259.29933,569.707975 1259.05036,569.620968 C1258.792,569.531257 1258.53684,569.432712 1258.29148,569.328159 C1258.03906,569.220912 1257.79049,569.10502 1257.55135,568.983329 C1257.30514,568.858315 1257.06346,568.724825 1256.84257,568.592555 C1256.6046,568.450974 1256.37175,568.301175 1256.15066,568.147755 C1255.92732,567.993159 1255.70934,567.83112 1255.50491,567.668165 C1255.29049,567.497781 1255.08199,567.320108 1254.88701,567.14209 C1254.68295,566.956346 1254.48544,566.763632 1254.3016,566.571388 C1254.11499,566.376829 1253.93497,566.176209 1253.76165,565.969679 C1253.5882,565.762996 1253.42173,565.550661 1253.25586,565.323999 C1253.09886,565.108722 1252.94887,564.888381 1252.804,564.659997 C1252.69706,564.491188 1252.59427,564.319848 1252.49456,564.14403 L1252.39584,563.966648 L1231.41684,525.48158 L1206.26104,570.133675 L1194.44288,563.475675 L1220.93246,516.455819 C1221.06323,516.223634 1221.2015,515.995899 1221.34718,515.772738 C1221.4928,515.549684 1221.64559,515.331553 1221.80586,515.117998 C1221.96596,514.904715 1222.13294,514.696842 1222.30595,514.495376 C1222.47982,514.292842 1222.66022,514.096176 1222.8484,513.904137 C1223.03518,513.713635 1223.22808,513.529417 1223.42625,513.352275 C1223.62609,513.173594 1223.83171,513.001686 1224.04146,512.837863 C1224.25314,512.672443 1224.47017,512.514213 1224.69079,512.364403 C1224.91213,512.214011 1225.13829,512.071077 1225.37095,511.934636 C1225.60222,511.799109 1225.83784,511.671381 1226.07708,511.551843 C1226.31754,511.431671 1226.56186,511.319645 1226.80925,511.216104 C1227.05676,511.112494 1227.30755,511.017233 1227.56226,510.930125 C1227.81638,510.843254 1228.07323,510.764962 1228.3339,510.694973 C1228.59316,510.625419 1228.85457,510.5646 1229.11899,510.512361 C1229.3824,510.460366 1229.64738,510.417242 1229.91507,510.382854 C1230.18198,510.348621 1230.44987,510.323404 1230.71837,510.307234 C1230.98446,510.291205 1231.25073,510.284081 1231.5328,510.285557 Z" id="path-15"></path>
        <filter x="-16.1%" y="-52.5%" width="132.2%" height="205.7%" filterUnits="objectBoundingBox" id="filter-16">
            <feMorphology radius="1.5" operator="dilate" in="SourceAlpha" result="shadowSpreadOuter1"></feMorphology>
            <feOffset dx="0" dy="0" in="shadowSpreadOuter1" result="shadowOffsetOuter1"></feOffset>
            <feMorphology radius="1.5" operator="erode" in="SourceAlpha" result="shadowInner"></feMorphology>
            <feOffset dx="0" dy="0" in="shadowInner" result="shadowInner"></feOffset>
            <feComposite in="shadowOffsetOuter1" in2="shadowInner" operator="out" result="shadowOffsetOuter1"></feComposite>
            <feGaussianBlur stdDeviation="10" in="shadowOffsetOuter1" result="shadowBlurOuter1"></feGaussianBlur>
            <feColorMatrix values="0 0 0 0 1   0 0 0 0 1   0 0 0 0 1  0 0 0 0.5 0" type="matrix" in="shadowBlurOuter1"></feColorMatrix>
        </filter>
    </defs>
    <g id="Artboard" stroke="none" stroke-width="1" fill="none" fill-rule="evenodd">
        <g id="Oval" fill="black" fill-opacity="1">
            <use filter="url(#filter-2)" xlink:href="#path-1"></use>
        </g>
        <g id="Oval" fill="black" fill-opacity="1">
            <use filter="url(#filter-4)" xlink:href="#path-3"></use>
        </g>
        <g id="Oval" fill="black" fill-opacity="1">
            <use filter="url(#filter-6)" xlink:href="#path-5"></use>
        </g>
        <g id="Oval" fill="black" fill-opacity="1">
            <use filter="url(#filter-8)" xlink:href="#path-7"></use>
        </g>
        <g id="Oval" fill="black" fill-opacity="1">
            <use filter="url(#filter-10)" xlink:href="#path-9"></use>
        </g>
        <g id="Oval" fill="black" fill-opacity="1">
            <use filter="url(#filter-12)" xlink:href="#path-11"></use>
        </g>
        <g id="Oval" fill="black" fill-opacity="1">
            <use filter="url(#filter-14)" xlink:href="#path-13"></use>
        </g>
        <g id="Path" fill-rule="nonzero" transform="translate(1293.862344, 540.285557) rotate(-360.000000) translate(-1293.862344, -540.285557) ">
            <use fill="black" fill-opacity="1" filter="url(#filter-16)" xlink:href="#path-15"></use>
            <use stroke="#FFFFFF" stroke-width="3" xlink:href="#path-15"></use>
        </g>
    </g>
</svg>